<svg id="Layer_1" xmlns="http://www.w3.org/2000/svg" viewBox="0 0 16 15.3">
  <style>
    svg{
      fill:#000000;
      transition: all 0.5s;
    }

    svg:hover {
      transform:scale(0.7);
      cursor:pointer;
    }
  </style>
  <a href="https://www.linkedin.com/in/ocip-group-7595a8152/"
      target="_blank">
  <path class="st0" d="M.2 5h3.4v10.3H.2zM1.9 3.6C.7 3.6 0 2.8 0 1.8S.8 0 1.9 0c1.2 0 1.9.8 1.9 1.8.1 1-.7 1.8-1.9 1.8zM16 15.3h-3.4V9.8c0-1.4-.5-2.3-1.7-2.3-.9 0-1.5.6-1.8 1.3-.1.1-.1.4-.1.7v5.8H5.5V5H9v1.5c.5-.7 1.3-1.7 3.1-1.7 2.3 0 3.9 1.5 3.9 4.6v5.9z"/>
  </a>
</svg>
