<svg xmlns="http://www.w3.org/2000/svg" viewBox="0 0 16 13">
	<defs>
		<style>
			svg{
        fill:#000000;
        transition: all 0.5s;
      }

      svg:hover {
        transform:scale(0.7);
        cursor:pointer;
      }
		</style>
	</defs>
	<a href="https://twitter.com/OCIPGROUP"
      target="_blank">
	<path class="st0" d="M14.4 3.2c0 0.1 0 0.3 0 0.4C14.4 8 11.1 13 5 13c-1.9 0-3.6-0.5-5-1.5 0.3 0 0.5 0 0.8 0 1.5 0 3-0.5 4.1-1.4 -1.4 0-2.6-1-3.1-2.3 0.2 0 0.4 0.1 0.6 0.1 0.3 0 0.6 0 0.9-0.1C1.8 7.5 0.6 6.2 0.6 4.6c0 0 0 0 0 0C1.1 4.8 1.6 5 2.1 5 1.2 4.4 0.7 3.4 0.7 2.3c0-0.6 0.2-1.2 0.4-1.7 1.6 2 4 3.3 6.8 3.4C7.8 3.8 7.8 3.5 7.8 3.3 7.8 1.5 9.3 0 11.1 0c0.9 0 1.8 0.4 2.4 1 0.7-0.1 1.5-0.4 2.1-0.8 -0.2 0.8-0.8 1.4-1.4 1.8C14.8 2 15.4 1.8 16 1.5 15.6 2.2 15 2.8 14.4 3.2z"/>
	</a>
</svg>
